<svg width="30" height="30" viewBox="0 0 30 30" fill="none" xmlns="http://www.w3.org/2000/svg">
<path d="M15 0C6.705 0 0 6.75 0 15C0 18.9782 1.58035 22.7936 4.3934 25.6066C5.78628 26.9995 7.43986 28.1044 9.25975 28.8582C11.0796 29.612 13.0302 30 15 30C18.9782 30 22.7936 28.4196 25.6066 25.6066C28.4196 22.7936 30 18.9782 30 15C30 13.0302 29.612 11.0796 28.8582 9.25975C28.1044 7.43986 26.9995 5.78628 25.6066 4.3934C24.2137 3.00052 22.5601 1.89563 20.7403 1.14181C18.9204 0.387987 16.9698 0 15 0ZM20.4 9.51C22.005 9.51 23.295 10.8 23.295 12.405C23.295 14.01 22.005 15.3 20.4 15.3C19.6322 15.3 18.8958 14.995 18.3529 14.4521C17.81 13.9092 17.505 13.1728 17.505 12.405C17.49 10.8 18.795 9.51 20.4 9.51ZM11.4 7.14C13.35 7.14 14.94 8.73 14.94 10.68C14.94 12.63 13.35 14.25 11.4 14.25C9.45 14.25 7.86 12.63 7.86 10.68C7.86 8.715 9.435 7.14 11.4 7.14ZM11.4 20.835V26.46C7.8 25.335 4.95 22.56 3.69 19.02C5.25 17.34 9.195 16.5 11.4 16.5C12.195 16.5 13.2 16.605 14.25 16.815C11.79 18.12 11.4 19.845 11.4 20.835ZM15 27C14.58 27 14.19 27 13.8 26.94V20.835C13.8 18.705 18.21 17.64 20.4 17.64C22.005 17.64 24.75 18.225 26.16 19.365C24.405 23.82 20.07 27 15 27Z" fill="#505050"/>
</svg>