<svg width="33" height="16" viewBox="0 0 33 16" fill="none" xmlns="http://www.w3.org/2000/svg">
<rect width="33" height="16" rx="4" fill="#FF2424"/>
<path d="M8.49658 4.14746C9.50993 4.14746 10.2493 4.36589 10.7148 4.80273C11.1803 5.236 11.4131 5.83398 11.4131 6.59668C11.4131 6.94043 11.3612 7.26986 11.2573 7.58496C11.1535 7.89648 10.9834 8.17399 10.7471 8.41748C10.5143 8.66097 10.2028 8.85433 9.8125 8.99756C9.4222 9.13721 8.94059 9.20703 8.36768 9.20703H7.65332V12H5.98828V4.14746H8.49658ZM8.41064 5.51172H7.65332V7.84277H8.20117C8.5127 7.84277 8.78304 7.8016 9.01221 7.71924C9.24137 7.63688 9.41862 7.50798 9.54395 7.33252C9.66927 7.15706 9.73193 6.93148 9.73193 6.65576C9.73193 6.26904 9.62451 5.98258 9.40967 5.79639C9.19482 5.60661 8.86182 5.51172 8.41064 5.51172ZM15.1836 4.14746C15.8962 4.14746 16.4834 4.2334 16.9453 4.40527C17.4108 4.57715 17.7563 4.83675 17.9819 5.18408C18.2075 5.53141 18.3203 5.97005 18.3203 6.5C18.3203 6.85807 18.2523 7.17139 18.1162 7.43994C17.9801 7.7085 17.8011 7.93587 17.5791 8.12207C17.3571 8.30827 17.1172 8.46045 16.8594 8.57861L19.1689 12H17.3213L15.4468 8.98682H14.5605V12H12.8955V4.14746H15.1836ZM15.0654 5.51172H14.5605V7.6333H15.0977C15.6491 7.6333 16.043 7.54199 16.2793 7.35938C16.5192 7.17318 16.6392 6.90104 16.6392 6.54297C16.6392 6.17057 16.5103 5.9056 16.2524 5.74805C15.9982 5.59049 15.6025 5.51172 15.0654 5.51172ZM27.2847 8.06299C27.2847 8.66813 27.2095 9.21956 27.0591 9.71729C26.9087 10.2114 26.6795 10.6375 26.3716 10.9956C26.0672 11.3537 25.6805 11.6294 25.2114 11.8228C24.7424 12.0125 24.1873 12.1074 23.5464 12.1074C22.9054 12.1074 22.3504 12.0125 21.8813 11.8228C21.4123 11.6294 21.0238 11.3537 20.7158 10.9956C20.4115 10.6375 20.1841 10.2096 20.0337 9.71191C19.8833 9.21419 19.8081 8.66097 19.8081 8.05225C19.8081 7.23942 19.9406 6.53223 20.2056 5.93066C20.4741 5.32552 20.8859 4.85645 21.4409 4.52344C21.9959 4.19043 22.7013 4.02393 23.5571 4.02393C24.4093 4.02393 25.1094 4.19043 25.6572 4.52344C26.2087 4.85645 26.6169 5.32552 26.8818 5.93066C27.1504 6.53581 27.2847 7.24658 27.2847 8.06299ZM21.5537 8.06299C21.5537 8.61084 21.6217 9.0835 21.7578 9.48096C21.8975 9.87484 22.1141 10.1792 22.4077 10.394C22.7013 10.6053 23.0809 10.7109 23.5464 10.7109C24.019 10.7109 24.4022 10.6053 24.6958 10.394C24.9894 10.1792 25.2025 9.87484 25.335 9.48096C25.471 9.0835 25.5391 8.61084 25.5391 8.06299C25.5391 7.23942 25.3851 6.59131 25.0771 6.11865C24.7692 5.646 24.2625 5.40967 23.5571 5.40967C23.0881 5.40967 22.7049 5.51709 22.4077 5.73193C22.1141 5.9432 21.8975 6.24756 21.7578 6.64502C21.6217 7.0389 21.5537 7.51156 21.5537 8.06299Z" fill="white"/>
</svg>
